<svg xmlns="http://www.w3.org/2000/svg" width="58.209" height="58.209" viewBox="0 0 58.209 58.209"><defs><style>.a{fill:#fff;stroke:#453878;stroke-miterlimit:10;stroke-width:3px;}.b{fill:#453878;}</style></defs><g transform="translate(1.5 1.5)"><circle class="a" cx="27.605" cy="27.605" r="27.605"/><path class="b" d="M114.906,84.689l0,0-13.7-13.7a3.091,3.091,0,0,0-4.373,0L83.137,84.679l-.014.014a3.091,3.091,0,0,0,2.058,5.268q.048,0,.1,0h.546v10.082a3.623,3.623,0,0,0,3.619,3.618H94.8a.984.984,0,0,0,.984-.984v-7.9a1.652,1.652,0,0,1,1.651-1.651H100.6a1.652,1.652,0,0,1,1.651,1.651v7.9a.984.984,0,0,0,.985.984h5.36a3.623,3.623,0,0,0,3.619-3.618V89.966h.506a3.092,3.092,0,0,0,2.188-5.277Z" transform="translate(-71.412 -60.493)"/></g></svg>