<svg xmlns="http://www.w3.org/2000/svg" xmlns:xlink="http://www.w3.org/1999/xlink" width="95.034" height="95.034" viewBox="0 0 95.034 95.034"><defs><style>.a{fill:#fff;}.b{fill:none;stroke-miterlimit:10;}.b,.c{stroke:#fff;stroke-width:2px;}.c{fill:url(#a);}.d{clip-path:url(#d);}.e{filter:url(#b);}</style><linearGradient id="a" x1="0.5" x2="0.5" y2="1" gradientUnits="objectBoundingBox"><stop offset="0" stop-color="#fc3"/><stop offset="1" stop-color="#ff8f00"/></linearGradient><filter id="b" x="0" y="0" width="95.034" height="95.034" filterUnits="userSpaceOnUse"><feOffset dy="3" input="SourceAlpha"/><feGaussianBlur stdDeviation="3" result="c"/><feFlood flood-opacity="0.161"/><feComposite operator="in" in2="c"/><feComposite in="SourceGraphic"/></filter><clipPath id="d"><path class="a" d="M1102.519,98.855" transform="translate(-1102.519 -98.855)"/></clipPath></defs><g transform="translate(10 7)"><g transform="translate(-1016.036 -51.447)"><circle class="b" cx="37.517" cy="37.517" r="37.517" transform="translate(1016.036 51.447)"/><g transform="translate(1016.036 51.447)"><g class="e" transform="matrix(1, 0, 0, 1, -10, -7)"><circle class="c" cx="37.517" cy="37.517" r="37.517" transform="translate(10 7)"/></g><g transform="translate(20.351 15.523)"><g transform="translate(0 0)"><g transform="translate(5.492 40.611)"><path class="a" d="M1084.935,98.975" transform="translate(-1084.935 -98.975)"/></g><g transform="translate(20.743 40.507)"><path class="a" d="M1102.519,98.855" transform="translate(-1102.519 -98.855)"/><g class="d"><path class="a" d="M1102.519,98.855Z" transform="translate(-1102.519 -98.855)"/><path class="a" d="M1102.519,98.855Z" transform="translate(-1102.519 -98.855)"/><path class="a" d="M1102.519,98.855Z" transform="translate(-1102.519 -98.855)"/><path class="a" d="M1102.519,98.855Z" transform="translate(-1102.519 -98.855)"/></g><path class="a" d="M1102.519,98.855" transform="translate(-1102.519 -98.855)"/></g><path class="a" d="M1112.936,88.774h-5.606V57.756H1086.9a2.671,2.671,0,0,0-2.687,2.649V88.774H1078.6V60.405a8.283,8.283,0,0,1,8.293-8.254h22.463a3.578,3.578,0,0,1,3.577,3.572Z" transform="translate(-1078.603 -52.151)"/><g transform="translate(0 29.205)"><path class="a" d="M1112.936,101.281H1086.29a7.7,7.7,0,0,1-7.687-7.687v-.083a7.7,7.7,0,0,1,7.687-7.687h26.646ZM1086.29,91.43a2.083,2.083,0,0,0-2.081,2.081v.083a2.083,2.083,0,0,0,2.081,2.081h21.04V91.43Z" transform="translate(-1078.603 -85.824)"/></g><g transform="translate(6.839 8.896)"><line class="a" x1="14.766" transform="translate(1.869 1.868)"/><path class="a" d="M1103.123,66.145h-14.766a1.869,1.869,0,1,1,0-3.737h14.766a1.869,1.869,0,0,1,0,3.737Z" transform="translate(-1086.488 -62.408)"/></g><g transform="translate(6.839 13.78)"><line class="a" x1="11.229" transform="translate(1.869 1.869)"/><path class="a" d="M1099.586,71.776h-11.229a1.869,1.869,0,1,1,0-3.737h11.229a1.869,1.869,0,0,1,0,3.737Z" transform="translate(-1086.488 -68.039)"/></g></g></g></g></g></g></svg>