<svg xmlns="http://www.w3.org/2000/svg" xmlns:xlink="http://www.w3.org/1999/xlink" width="95" height="95" viewBox="0 0 95 95"><defs><style>.a{fill:none;stroke-miterlimit:10;}.a,.b{stroke:#fff;stroke-width:2px;}.b{fill:url(#a);}.c{fill:#fff;}.d{filter:url(#b);}</style><linearGradient id="a" x1="0.5" x2="0.5" y2="1" gradientUnits="objectBoundingBox"><stop offset="0" stop-color="#9987ff"/><stop offset="1" stop-color="#453878"/></linearGradient><filter id="b" x="0" y="0" width="95" height="95" filterUnits="userSpaceOnUse"><feOffset dy="3" input="SourceAlpha"/><feGaussianBlur stdDeviation="3" result="c"/><feFlood flood-opacity="0.161"/><feComposite operator="in" in2="c"/><feComposite in="SourceGraphic"/></filter></defs><g transform="translate(10 7)"><g transform="translate(-1096.435 -51.615)"><circle class="a" cx="37.5" cy="37.5" r="37.5" transform="translate(1096.435 51.615)"/><g transform="translate(1096.435 51.615)"><g class="d" transform="matrix(1, 0, 0, 1, -10, -7)"><circle class="b" cx="37.5" cy="37.5" r="37.5" transform="translate(10 7)"/></g><g transform="translate(14.03 17.427)"><g transform="translate(0 1.813)"><path class="c" d="M1249.413,94.584h-36.2a5.376,5.376,0,0,1-5.369-5.369v-27.1a5.376,5.376,0,0,1,5.369-5.369h36.2a5.376,5.376,0,0,1,5.37,5.369v27.1A5.376,5.376,0,0,1,1249.413,94.584Zm-36.2-32.863a.393.393,0,0,0-.392.392v27.1a.393.393,0,0,0,.392.392h36.2a.392.392,0,0,0,.391-.392v-27.1a.392.392,0,0,0-.391-.392Z" transform="translate(-1207.843 -56.743)"/></g><g transform="translate(22.162 0)"><path class="c" d="M1234.775,63.225a1.383,1.383,0,0,1-1.383-1.383V56.036a1.383,1.383,0,0,1,2.765,0v5.807A1.383,1.383,0,0,1,1234.775,63.225Z" transform="translate(-1233.392 -54.653)"/></g><g transform="translate(33.223 0)"><path class="c" d="M1247.527,63.225a1.383,1.383,0,0,1-1.383-1.383V56.036a1.383,1.383,0,1,1,2.765,0v5.807A1.382,1.382,0,0,1,1247.527,63.225Z" transform="translate(-1246.144 -54.653)"/></g><g transform="translate(10.824 0)"><path class="c" d="M1221.7,63.225a1.383,1.383,0,0,1-1.383-1.383V56.036a1.383,1.383,0,1,1,2.765,0v5.807A1.382,1.382,0,0,1,1221.7,63.225Z" transform="translate(-1220.321 -54.653)"/></g><path class="c" d="M1233.215,85.179V74.425q-3,2.3-4.042,2.3a1.2,1.2,0,0,1-.88-.4,1.275,1.275,0,0,1-.383-.916,1.034,1.034,0,0,1,.378-.887,8.331,8.331,0,0,1,1.335-.732,10,10,0,0,0,2.286-1.418,9.693,9.693,0,0,0,1.519-1.667q.661-.921.863-1.135a1.033,1.033,0,0,1,.756-.212,1.21,1.21,0,0,1,1,.484,2.117,2.117,0,0,1,.378,1.335V84.718q0,2.375-1.619,2.375a1.488,1.488,0,0,1-1.159-.484A2.077,2.077,0,0,1,1233.215,85.179Z" transform="translate(-1210.503 -56.604)"/></g></g></g></g></svg>