<svg xmlns="http://www.w3.org/2000/svg" xmlns:xlink="http://www.w3.org/1999/xlink" width="302" height="157.831" viewBox="0 0 302 157.831"><defs><style>.a{fill:none;}.b{fill:url(#a);}.c{fill:#f9d4b8;}.d{fill:#af2c2c;}.e{fill:#ebb897;}.f{fill:#23242b;}.g{fill:#28326d;}.h{fill:#fff;}.i{fill:#ffb861;}.j{clip-path:url(#b);}</style><linearGradient id="a" y1="0.5" x2="1" y2="0.5" gradientUnits="objectBoundingBox"><stop offset="0" stop-color="#ff5fa2"/><stop offset="1" stop-color="#ffb762"/></linearGradient><clipPath id="b"><circle class="a" cx="78.915" cy="78.915" r="78.915"/></clipPath></defs><path class="b" d="M78.915,0A78.915,78.915,0,1,1,0,78.915,78.915,78.915,0,0,1,78.915,0Z" transform="translate(72.084)"/><path class="c" d="M1935.1,902.289a2.146,2.146,0,0,0-1.652-.4c-.169-1.157-1.842-.676-1.842-.676.161-.449-.5-.8-.5-.8-.738-.513-2.18.737-2.18.737.112-.272-.192-.7-.752-.9s-1.346.439-1.346.439a8.962,8.962,0,0,1-2.884,1.444,20.755,20.755,0,0,1-2.309-.418c-1.66-.466-6.136-2.647-5.61-3.556s7.157.018,7.066-2.2c0,0-.011-.594-2.256-.9s-10.985-.546-12.694-.71a10.524,10.524,0,0,0-7.332,2.248s-4.511,2.606-1.153,6.866l3.581,1.5s20.356,1.988,27.245.919C1930.488,905.879,1936.513,904.4,1935.1,902.289Z" transform="translate(-1633.317 -786.159)"/><path class="c" d="M1769.212,900.456c-26.207,12.333-38.124,17.054-46.277,20.458l-5.661-4.982-12.693,17.309c8.846,11.154,21.1,6.076,21.1,6.076,11.271-5.28,46.687-31.046,46.687-31.046A8.864,8.864,0,0,0,1769.212,900.456Z" transform="translate(-1500.428 -790.379)"/><path class="d" d="M1485.746,765.829s12.372-5.906,31.988.024l-.192,9.351h-31.925Z" transform="translate(-1350.313 -696.288)"/><g transform="translate(127.715 11.859)"><path class="c" d="M1474.746,714.393s.664,15.6,0,18.143-6.888,6.673-13.265,9.663c0,0,6.077,17.411,22.109,17.079s22.233-13.2,24.779-16.851c0,0-12.231-4.232-12.524-9.434s0-18.6,0-18.6Z" transform="translate(-1461.481 -674.679)"/><path class="e" d="M1514.071,729.1c5.071,0,8.6-3.337,10.576-6.069.03-4.617.121-8.635.121-8.635h-21.1s.176,4.015.256,8.423C1505.622,725.575,1508.868,729.1,1514.071,729.1Z" transform="translate(-1490.403 -674.679)"/><path class="c" d="M1478.605,660.4s-.874-2.565-4.309-2.264c-3.321.291-2.194,8.822.729,10.228s3.888-2.834,3.888-2.834Z" transform="translate(-1468.876 -636.097)"/><path class="c" d="M1584.251,660.4s.875-2.565,4.31-2.264c3.321.291,2.195,8.822-.729,10.228s-3.888-2.834-3.888-2.834Z" transform="translate(-1545.438 -636.097)"/><path class="c" d="M1517.964,611.725c-1.465,18.248-6.579,27.01-17.373,27.01s-15.978-7.235-17.373-27.01c-1.031-14.6,6.622-23.635,17.373-23.635S1519.182,596.565,1517.964,611.725Z" transform="translate(-1476.32 -588.09)"/><path class="f" d="M1505.3,669.875a1.1,1.1,0,1,1-1.085-1.251A1.177,1.177,0,0,1,1505.3,669.875Z" transform="translate(-1490.036 -643.302)"/><path class="f" d="M1568.2,669.875a1.1,1.1,0,1,1-1.085-1.251A1.177,1.177,0,0,1,1568.2,669.875Z" transform="translate(-1533.154 -643.302)"/><g transform="translate(9.804 21.007)"><path class="g" d="M1493.308,652.96a.648.648,0,0,1-.482-1.081c1.012-1.124,3.506-3.49,7.111-1.115a.676.676,0,0,1,.283.871.649.649,0,0,1-.872.283,4.677,4.677,0,0,0-5.559.828A.646.646,0,0,1,1493.308,652.96Z" transform="translate(-1492.66 -649.744)"/></g><g transform="translate(31.508 21.007)"><path class="g" d="M1568.668,652.96a.648.648,0,0,0,.481-1.082c-1.011-1.124-3.505-3.49-7.111-1.115a.677.677,0,0,0-.283.871.649.649,0,0,0,.872.283,4.677,4.677,0,0,1,5.559.828A.647.647,0,0,0,1568.668,652.96Z" transform="translate(-1561.688 -649.743)"/></g><g transform="translate(21.727 29.889)"><path class="e" d="M1532.862,690.367a2.078,2.078,0,0,1-1.974-.949c-1.058-2.1.949-5.481,1.137-5.9.13-.288.324-.458.612-.328s.179.51.05.8c-.614,1.364-1,3.885-.43,4.847a.794.794,0,0,0,.7.388.581.581,0,0,1,.522.619C1533.457,690.394,1532.879,690.367,1532.862,690.367Z" transform="translate(-1530.582 -683.148)"/></g><g transform="translate(20.192 40.548)"><path class="h" d="M1526.425,717.168a12.376,12.376,0,0,0,6.1,0s.793-.276,1.033,0-.183,2.243-3.683,2.26-4.15-1.294-4.15-1.656C1525.729,717.772,1525.484,716.976,1526.425,717.168Z" transform="translate(-1525.7 -717.045)"/></g></g><path class="i" d="M1644.167,827.177a38.554,38.554,0,0,1,10.115,8.9c3.043,3.951,22.469,33.559,22.469,33.559s-12.016,13.262-22.4,25.482l-14.424-17.308S1629.555,848.6,1644.167,827.177Z" transform="translate(-1453.654 -740.141)"/><path class="c" d="M1055.519,902.289a2.146,2.146,0,0,1,1.652-.4c.169-1.157,1.841-.676,1.841-.676-.16-.449.5-.8.5-.8.737-.513,2.18.737,2.18.737-.112-.272.192-.7.753-.9s1.346.439,1.346.439a8.952,8.952,0,0,0,2.884,1.444,20.757,20.757,0,0,0,2.309-.418c1.66-.466,6.136-2.647,5.611-3.556s-7.157.018-7.067-2.2c0,0,.011-.594,2.256-.9s10.984-.546,12.694-.71a10.526,10.526,0,0,1,7.332,2.248s4.51,2.606,1.153,6.866l-3.58,1.5s-20.356,1.988-27.246.919C1060.135,905.879,1054.109,904.4,1055.519,902.289Z" transform="translate(-1055.305 -786.159)"/><path class="c" d="M1153.977,900.456c26.207,12.333,38.124,17.054,46.277,20.458l5.661-4.982,12.693,17.309c-8.847,11.154-21.1,6.076-21.1,6.076-11.271-5.28-46.687-31.046-46.687-31.046A8.866,8.866,0,0,1,1153.977,900.456Z" transform="translate(-1120.762 -790.379)"/><path class="i" d="M1338.7,827.177a39.17,39.17,0,0,0-9.983,8.9c-3.043,3.951-22.469,33.559-22.469,33.559s12.015,13.262,22.4,25.482l14.424-17.308S1353.308,848.6,1338.7,827.177Z" transform="translate(-1227.341 -740.141)"/><g transform="translate(109.918 98.255)"><path class="d" d="M1406.778,904.473a.421.421,0,0,1-.385-.423c0-.328-.18-32.969-1.506-40.733a.394.394,0,0,1,.314-.454.381.381,0,0,1,.444.309c1.336,7.826,1.515,40.548,1.517,40.877a.418.418,0,0,1-.383.424Z" transform="translate(-1404.882 -862.857)"/></g><g transform="translate(72.084)"><g class="j"><path class="i" d="M1450.412,868.757a99.559,99.559,0,0,0,27.864-4.006c2.57-.769,5.084-1.656,7.572-2.617,1.347-30.471,2.688-73.206,2.688-73.206-4.83-2.955-18.27-9.97-18.27-9.97a51.141,51.141,0,0,1-4.822-7.573,152.729,152.729,0,0,1-16.973,25.485c-10.143-8.465-15.015-25.485-15.015-25.485-1.875,2.308-6.237,7.308-6.237,7.308-9.209,4.8-17.841,10.234-17.841,10.234-.161,1.935.293,41.879.765,74.894A166.5,166.5,0,0,0,1450.412,868.757Z" transform="translate(-1370.108 -701.893)"/><g transform="translate(56.937 77.155)"><path class="d" d="M1487.112,815.046a.376.376,0,0,1-.12-.02l-10.513-3.462a.385.385,0,0,1-.262-.411l.514-4.28-9.736,1.947a.385.385,0,0,1-.459-.349l-.9-12.308a.385.385,0,0,1,.768-.056l.866,11.874,9.829-1.966a.384.384,0,0,1,.457.423l-.539,4.5,10.072,3.316,10.069-4.544-1.342-4.457a.385.385,0,0,1,.527-.461l9.428,4.278,2.631-12.622a.384.384,0,1,1,.753.157l-2.728,13.092a.385.385,0,0,1-.536.272l-9.094-4.126,1.195,3.969a.384.384,0,0,1-.21.462l-10.513,4.744A.387.387,0,0,1,1487.112,815.046Z" transform="translate(-1465.637 -795.751)"/></g><g transform="translate(77.011 97.135)"><path class="d" d="M1533.131,929.017c.256,0,.511-.008.767-.012-.237-6.553-.852-18.689-1.995-25.66-2.855-17.413-1.214-42.29-.717-43.523a.385.385,0,0,0-.713-.289c-.522,1.288-2.279,25.934.671,43.936C1532.281,910.407,1532.895,922.5,1533.131,929.017Z" transform="translate(-1529.477 -859.294)"/></g><g transform="translate(116.24 98.234)"><path class="d" d="M1654.648,902.923a.353.353,0,0,1-.385-.341c-.013-1.322-.287-32.425,1.414-39.5a.378.378,0,0,1,.464-.274.389.389,0,0,1,.285.468c-1.679,6.989-1.4,38.978-1.393,39.3a.353.353,0,0,1-.381.351Z" transform="translate(-1654.24 -862.792)"/></g></g></g><path class="g" d="M1501.613,586.829s-4.61-1.407-5.291,1.067a6.264,6.264,0,0,1-5.405,4.926c-3.031.371-.382,4.409-4.59,4.488,0,0,.86-1.1.551-1.721a2.6,2.6,0,0,1-.189-2.354s-8.03,4.256-8.03,7.046l.108,1.986h-1.3l-.754-2.434-.916-8.162s-2.165-1.725-1.794-3.457,2.6-3.4,2.97-6.616a5.222,5.222,0,0,1,5.877-4.885c2.908.433,3.465-4.763,7.734-2.783s5.575-4.729,8.884.31c2.052,3.124,4.809-1.176,5.462,4.021,0,0,6.441.433,5.76,2.722s6.372,5.445,2.6,9.28l-.99,9.549-.819,2.456h-1.346s-.062-4.611-.31-5.786-1.856-5-2.289-7.162S1504.228,585.994,1501.613,586.829Z" transform="translate(-1342.321 -565.419)"/></svg>