<svg xmlns="http://www.w3.org/2000/svg" xmlns:xlink="http://www.w3.org/1999/xlink" width="118.263" height="101.446" viewBox="0 0 118.263 101.446"><defs><style>.a{fill:none;}.b{clip-path:url(#a);}.c{fill:url(#b);}.d{clip-path:url(#c);}.e{fill:#453878;}</style><clipPath id="a"><path class="a" d="M86.627,20.115,46.7,62.429,78.6,96.353l39.927-42.314a25.027,25.027,0,0,0,0-33.924,21.627,21.627,0,0,0-31.9,0" transform="translate(-46.7 -13.094)"/></clipPath><linearGradient id="b" x1="-0.419" y1="1.105" x2="-0.41" y2="1.105" gradientUnits="objectBoundingBox"><stop offset="0" stop-color="#3de580"/><stop offset="0.05" stop-color="#3be180"/><stop offset="0.43" stop-color="#2cc37d"/><stop offset="0.76" stop-color="#22b17b"/><stop offset="1" stop-color="#1fab7a"/></linearGradient><clipPath id="c"><rect class="a" width="118.263" height="101.446"/></clipPath></defs><g transform="translate(59.132 50.723)"><g transform="translate(-59.132 -50.723)"><g class="b" transform="translate(33.779 9.471)"><rect class="c" width="80.578" height="83.254" transform="translate(0 0.004)"/></g><g class="d"><path class="e" d="M59.161,101.427h-.145a6.51,6.51,0,0,1-4.7-2.1L7.95,49.781a30.352,30.352,0,0,1,0-41.012,26.908,26.908,0,0,1,39.638,0l11.5,12.3,11.5-12.3a26.908,26.908,0,0,1,39.638,0,30.445,30.445,0,0,1,0,41.085L63.935,99.4a6.51,6.51,0,0,1-4.774,2.1ZM27.769,13.037a14.1,14.1,0,0,0-10.343,4.629,17.287,17.287,0,0,0,0,23.291L59.088,85.513l41.663-44.557a17.287,17.287,0,0,0,0-23.291,13.888,13.888,0,0,0-20.687,0L63.79,35.026a6.51,6.51,0,0,1-9.476,0L38.04,17.666a14.1,14.1,0,0,0-10.271-4.629" transform="translate(0.007 -0.017)"/></g></g></g></svg>