<svg xmlns="http://www.w3.org/2000/svg" xmlns:xlink="http://www.w3.org/1999/xlink" width="140.972" height="101.193" viewBox="0 0 140.972 101.193"><defs><style>.a{fill:none;}.b{clip-path:url(#a);}.c{fill:url(#b);}.d{clip-path:url(#c);}.e{fill:#453878;}.f{clip-path:url(#d);}.g{fill:url(#e);}</style><clipPath id="a"><path class="a" d="M103.312,18.766l-5.225,1.161A87.5,87.5,0,0,0,59.935,38.754L35.552,59.572a10.45,10.45,0,0,0-1.161,14.68l.581.664a10.367,10.367,0,0,0,5.557,3.4,10.367,10.367,0,0,0,8.045,9.455,10.367,10.367,0,0,0,2.488,6.137l.166.166a10.45,10.45,0,0,0,10.036,3.483,12.358,12.358,0,0,0,1.825,2.82l.332.332a10.45,10.45,0,0,0,14.6,1.161l25.545-21.813a94.3,94.3,0,0,0,13.187-13.768l10.036-12.855a4.23,4.23,0,1,0-6.635-5.142L110.113,61.147A85.924,85.924,0,0,1,98.17,73.671L72.625,95.484a1.991,1.991,0,0,1-2.82-.249l-.332-.332c-.581-.664-1.161-1.659-.415-2.322l10.118-8.626h0A4.23,4.23,0,1,0,73.7,77.569l-5.889,4.976L60.35,88.932a1.991,1.991,0,0,1-2.82-.249l-.166-.166a1.991,1.991,0,0,1,.249-2.82L70.966,74.252h0a4.23,4.23,0,0,0-5.391-6.386l-6.469,5.391-.664.664-6.137,5.225a2,2,0,1,1-2.654-2.986l8.626-7.464,4.562-3.9a4.23,4.23,0,1,0-5.474-6.386l-4.562,3.9L44.26,69.69a1.991,1.991,0,0,1-2.82-.249l-.581-.664a1.991,1.991,0,0,1,.249-2.82l24.3-20.735a79.04,79.04,0,0,1,34.5-17.168l5.225-1.161a4.23,4.23,0,0,0-.912-8.294h-.912" transform="translate(-31.913 -18.6)"/></clipPath><linearGradient id="b" x1="-0.067" y1="0.826" x2="-0.06" y2="0.826" gradientUnits="objectBoundingBox"><stop offset="0" stop-color="#3de580"/><stop offset="0.12" stop-color="#33da7e"/><stop offset="0.47" stop-color="#17bc79"/><stop offset="0.78" stop-color="#06aa75"/><stop offset="1" stop-color="#00a474"/></linearGradient><clipPath id="c"><rect class="a" width="140.912" height="101.193"/></clipPath><clipPath id="d"><path class="a" d="M137.062,5l-6.718,4.645a5.059,5.059,0,0,0-1.327,7.05l17.832,25.877A5.059,5.059,0,0,0,153.9,43.9l6.718-4.645a5.059,5.059,0,0,0,1.327-7.05L144.029,6.244a5.059,5.059,0,0,0-7.05-1.327" transform="translate(-128.128 -4.028)"/></clipPath><linearGradient id="e" x1="-2.394" y1="2.141" x2="-2.375" y2="2.141" xlink:href="#b"/></defs><g transform="translate(70.486 50.596)"><g transform="translate(-70.486 -50.596)"><g class="b" transform="translate(26.468 15.427)"><rect class="c" width="130.628" height="129.442" transform="matrix(0.76, -0.649, 0.649, 0.76, -44.132, 36.687)"/></g><g class="d"><path class="e" d="M9.706,40.815,2.573,36.834A5.059,5.059,0,0,1,.666,29.95L16.092,2.58a5.059,5.059,0,0,1,6.8-1.908l7.133,3.981a5.059,5.059,0,0,1,1.908,6.884L16.59,38.907a5.059,5.059,0,0,1-6.884,1.908" transform="translate(-0.002 -0.009)"/></g><g class="f" transform="translate(106.267 3.341)"><rect class="g" width="42.713" height="46.993" transform="matrix(0.984, -0.175, 0.175, 0.984, -7.81, 1.359)"/></g><g class="d"><path class="e" d="M26,49.008l7.133,11.363L57.351,39.221c1.576-1.41,10.533-7.3,12.607-7.8,5.474-1.244,12.607-1.576,13.187-.746,2.9,4.23,3.649,9.123,6.967,11.694s9.289,1.576,8.709-3.732-2.571-17.085-6.137-18.91S70.7,10.691,44.164,12.349c-.746.083-14.514,26.043-18.246,33.175A3.649,3.649,0,0,0,26,49.008" transform="translate(-4.353 -2.065)"/><path class="e" d="M96.539,116.117a6.3,6.3,0,0,1-4.562-1.908l-4.645-4.81a6.305,6.305,0,1,1,9.04-8.791l4.645,4.81a6.3,6.3,0,0,1-4.562,10.7" transform="translate(-14.596 -16.84)"/><path class="e" d="M106.256,105.839a6.3,6.3,0,0,1-4.562-1.908l-4.645-4.81a6.3,6.3,0,1,1,9.04-8.709l4.645,4.81a6.3,6.3,0,0,1-4.562,10.7" transform="translate(-16.185 -15.022)"/><path class="e" d="M115.633,96.222a6.3,6.3,0,0,1-4.562-1.908l-6.054-6.22a6.3,6.3,0,0,1,9.04-8.709l6.054,6.22a6.3,6.3,0,0,1-4.562,10.7" transform="translate(-17.682 -13.284)"/><path class="e" d="M124.325,86.291a6.3,6.3,0,0,1-4.562-1.908l-7.713-7.962a6.3,6.3,0,1,1,9.04-8.709l7.713,7.962a6.3,6.3,0,0,1-4.562,10.7" transform="translate(-18.744 -11.149)"/></g></g></g></svg>