<svg xmlns="http://www.w3.org/2000/svg" width="140.424" height="50.914" viewBox="0 0 140.424 50.914"><defs><style>.a,.b{fill:#fff;}.b{font-size:12px;font-family:Fieldwork-Geo-Light, Fieldwork Geo;font-weight:300;letter-spacing:0.2em;isolation:isolate;}</style></defs><g transform="translate(-1709.66 -60.499)"><path class="a" d="M1870.478,75.912c-2.316.036-4.464.11-6.452.238a48.052,48.052,0,0,0-3.33-7.689c-2.6-4.675-5.942-7.962-10.188-7.962-6.055,0-11,5.693-14.7,16.921q-.365,1.108-.712,2.31a2.711,2.711,0,0,0,.45,2.384,10.417,10.417,0,0,1,2.033,6.3,10.249,10.249,0,0,1-3.1,7.508,10.137,10.137,0,0,1-1.751,1.338,2.587,2.587,0,0,0-1.191,1.607,10.243,10.243,0,0,0-.077,1.108,3.9,3.9,0,0,0,3.614,4.161q.133.01.266.01h0a3.887,3.887,0,0,0,3.878-3.623,95.668,95.668,0,0,1,3.978-20.658c3.015-9.153,5.5-11.571,7.312-11.571,3.2,0,5.608,8.845,5.608,8.845-4.381.936-7.508,2.5-9.513,5.082-2.165,2.793-2.695,6.408-1.575,10.758,2.237,8.69,7.926,14.045,12.5,16.159a12.187,12.187,0,0,0,5.047,1.227,7.3,7.3,0,0,0,3.215-.7c2.947-1.436,3.315-5.073,2.953-10.476-.16-2.4-.507-5.181-.993-8.053-.34-2-.754-4.051-1.21-6.058-.1-.42-.2-.844-.3-1.269,1.534-.07,3.046-.106,4.446-.125a3.889,3.889,0,0,0,3.835-3.943c0-.043,0-.087,0-.131A3.955,3.955,0,0,0,1870.478,75.912Zm-7.914,8.867c-1.259.168-3.875.729-3.411,3.045a87.945,87.945,0,0,1,1.9,13.694.394.394,0,0,1-.576.377c-2.524-1.331-6.32-4.693-7.915-10.865-.735-2.853-.039-3.75.189-4.045.662-.854,2.723-2.249,9.738-2.951a.376.376,0,0,1,.412.337.371.371,0,0,1-.337.408Z" transform="translate(-24.438)"/><path class="a" d="M1778.523,84.572a.532.532,0,0,0-.461-.6.454.454,0,0,0-.066,0h-4.088a.4.4,0,0,0-.4.4.392.392,0,0,0,.035.163,2.231,2.231,0,0,0,.29.484.348.348,0,0,1,0,.409.319.319,0,0,1-.449.035.373.373,0,0,1-.035-.035c-1.251-1.431-3.281-1.807-5.163-1.807a9.451,9.451,0,1,0,0,18.9,8.908,8.908,0,0,0,5.826-2.439.334.334,0,0,1,.407-.038.32.32,0,0,1,.087.444.223.223,0,0,1-.022.03,3.408,3.408,0,0,0-.594.92.4.4,0,0,0,.376.548h3.982a.4.4,0,0,0,.4-.4.394.394,0,0,0,0-.042C1778.094,96.4,1777.43,93.376,1778.523,84.572Zm-10.34,12.943a4.488,4.488,0,1,1,4.416-4.487A4.339,4.339,0,0,1,1768.183,97.515Z" transform="translate(-9.815 -4.64)"/><path class="a" d="M1832.4,93.017a9.359,9.359,0,0,0-2.217-6.2,9.64,9.64,0,0,0-7.386-3.249,9.45,9.45,0,1,0,0,18.9,10.09,10.09,0,0,0,4.721-1.13A9.166,9.166,0,0,0,1832.4,93.017Zm-9.611,4.487a4.41,4.41,0,1,1,.007,0Z" transform="translate(-20.774 -4.629)"/><path class="a" d="M1805.609,76.092h-4.455a.4.4,0,0,0-.4.341c-.313,2.121-.458,4.313-.513,5.382a1.786,1.786,0,0,0,.377,1.187l.042.054a.362.362,0,0,1,.011.437.348.348,0,0,1-.488.068l-.021-.017a7.148,7.148,0,0,0-4.79-1.43,9.451,9.451,0,1,0,0,18.9,8.909,8.909,0,0,0,5.827-2.439.334.334,0,0,1,.407-.038.319.319,0,0,1,.087.444.264.264,0,0,1-.023.03,3.426,3.426,0,0,0-.593.92.4.4,0,0,0,.226.52.42.42,0,0,0,.15.028h3.986a.4.4,0,0,0,.4-.4c0-.011,0-.022,0-.033a104.353,104.353,0,0,1,.166-23.5.4.4,0,0,0-.345-.451A.39.39,0,0,0,1805.609,76.092ZM1795.369,96a4.488,4.488,0,1,1,4.419-4.487A4.338,4.338,0,0,1,1795.369,96Z" transform="translate(-15.271 -3.129)"/><path class="a" d="M1723.082,77.752a.552.552,0,0,0-.505-.328h-4.427a.55.55,0,0,0-.5.328,169.077,169.077,0,0,0-7.973,22.469.418.418,0,0,0,.294.513.4.4,0,0,0,.111.015h4.523a.531.531,0,0,0,.518-.4c.142-.565.43-1.706.869-3.277a.441.441,0,0,1,.425-.322h7.914a.431.431,0,0,1,.413.313c.44,1.576.731,2.719.871,3.287a.534.534,0,0,0,.518.4h4.523a.419.419,0,0,0,.4-.528A167.633,167.633,0,0,0,1723.082,77.752Zm-5.34,13.476c.635-2,1.385-4.348,2.245-6.684a.415.415,0,0,1,.281-.272.39.39,0,0,1,.46.243c.861,2.337,1.611,4.683,2.249,6.69a.446.446,0,0,1-.425.579h-4.4a.426.426,0,0,1-.428-.424.431.431,0,0,1,.021-.132Z" transform="translate(0 -3.396)"/><path class="a" d="M1752.675,84.06l-4.321.029a.532.532,0,0,0-.507.376,100.61,100.61,0,0,1-3.7,10.525.409.409,0,0,1-.754,0,100.313,100.313,0,0,1-3.686-10.522.534.534,0,0,0-.507-.377l-4.5-.03a.4.4,0,0,0-.4.4.429.429,0,0,0,.014.106c.59,2.218,3.165,11.237,7.092,17.268a.533.533,0,0,0,.448.241h3.833a.533.533,0,0,0,.448-.241c3.835-5.9,6.38-14.628,7.056-17.106a.533.533,0,0,0-.382-.65A.525.525,0,0,0,1752.675,84.06Z" transform="translate(-4.945 -4.728)"/><text class="b" transform="translate(1769.47 109.413)"><tspan x="0" y="0">LIFE</tspan></text></g></svg>